<?xml version="1.0" encoding="utf-8"?>
<!-- Generator: Adobe Illustrator 18.1.1, SVG Export Plug-In . SVG Version: 6.00 Build 0)  -->
<!DOCTYPE svg PUBLIC "-//W3C//DTD SVG 1.1//EN" "http://www.w3.org/Graphics/SVG/1.1/DTD/svg11.dtd">
<svg version="1.1" id="Layer_1" xmlns="http://www.w3.org/2000/svg" xmlns:xlink="http://www.w3.org/1999/xlink" x="0px" y="0px"
	 viewBox="-349 251 100 100" enable-background="new -349 251 100 100" xml:space="preserve">
<g>
	<path fill="#11ACDE" d="M-275.8,289.3c-1.5,0-2.9,0.3-4.2,0.8l-30.5-17.6c0-0.3,0-0.5,0-0.8c0-6.5-5.3-11.8-11.8-11.8
		c-6.5,0-11.8,5.3-11.8,11.8c0,6.5,5.3,11.8,11.8,11.8c2.6,0,4.9-0.8,6.9-2.2l28.3,16.4c-0.3,1.1-0.5,2.3-0.5,3.5
		c0,1.2,0.2,2.4,0.5,3.5l-28.3,16.3c-1.9-1.4-4.3-2.3-6.9-2.3c-6.5,0-11.8,5.3-11.8,11.8c0,6.5,5.3,11.8,11.8,11.8
		c6.5,0,11.8-5.3,11.8-11.8c0-0.2,0-0.5,0-0.7l30.6-17.7c1.3,0.5,2.7,0.8,4.1,0.8c6.5,0,11.8-5.3,11.8-11.8
		C-264,294.5-269.3,289.3-275.8,289.3z"/>
</g>
</svg>
