<?xml version="1.0" encoding="utf-8"?>
<!-- Generator: Adobe Illustrator 18.1.1, SVG Export Plug-In . SVG Version: 6.00 Build 0)  -->
<!DOCTYPE svg PUBLIC "-//W3C//DTD SVG 1.1//EN" "http://www.w3.org/Graphics/SVG/1.1/DTD/svg11.dtd">
<svg version="1.1" id="Layer_1" xmlns="http://www.w3.org/2000/svg" xmlns:xlink="http://www.w3.org/1999/xlink" x="0px" y="0px"
	 viewBox="-349 251 100 100" enable-background="new -349 251 100 100" xml:space="preserve">
<g>
	<g id="XMLID_2_">
		<g>
			<path fill="#11ACDE" d="M-277.1,294.8c0.8-0.2,1.7-0.8,2.5-0.8c1.3,0,2.7,0,3.8,0.5c1.9,0.9,2,3,0.3,4.3c-1.4,1-3.1,1.6-4.7,2.3
				c-3.6,1.4-4.1,2.4-2.3,5.8c3,5.6,7.2,9.8,13.7,11.4c0.7,0.2,1.7,0.9,1.7,1.3c-0.1,0.9-0.5,2.2-1.2,2.5c-2.2,1-4.5,1.9-6.8,2.4
				c-1.5,0.3-2,0.8-2.3,2.2c-0.7,2.9-1.2,3.3-4,2.7c-4.5-0.9-8.4-0.1-12.2,2.6c-7.7,5.5-13.4,5.5-21,0c-3.7-2.7-7.6-3.5-12-2.6
				c-2.9,0.6-3.5,0.2-4.2-2.8c-0.3-1.2-0.7-1.9-2.2-2.1c-2.2-0.4-4.4-1.1-6.5-2.1c-0.8-0.4-1.5-1.7-1.6-2.7
				c-0.1-0.4,1.3-1.3,2.2-1.5c6.9-1.9,11.2-6.6,14-12.9c0.7-1.5,0.1-2.5-1.1-3.2c-1.1-0.6-2.3-1-3.5-1.4c-0.7-0.3-1.5-0.6-2.2-1
				c-1.4-0.9-2.5-1.9-1.7-3.8c0.7-1.5,2.8-2.3,4.5-1.8c1,0.3,1.9,0.7,2.9,0.9c1.3,0.3,2-0.1,2-1.7c-0.1-3.6-0.3-7.1,0-10.7
				c0.6-7.5,5-12.4,11.7-15c9.7-3.8,21.4-0.9,26.6,8.5c1.8,3.3,2.1,6.9,2.3,10.5c-0.1,2.3-0.3,4.6-0.4,6.8
				C-279.1,294.8-278.3,295.1-277.1,294.8z"/>
		</g>
	</g>
</g>
</svg>
