<?xml version="1.0" encoding="utf-8"?>
<!-- Generator: Adobe Illustrator 18.1.1, SVG Export Plug-In . SVG Version: 6.00 Build 0)  -->
<!DOCTYPE svg PUBLIC "-//W3C//DTD SVG 1.1//EN" "http://www.w3.org/Graphics/SVG/1.1/DTD/svg11.dtd">
<svg version="1.1" id="Layer_1" xmlns="http://www.w3.org/2000/svg" xmlns:xlink="http://www.w3.org/1999/xlink" x="0px" y="0px"
	 viewBox="-349 251 100 100" enable-background="new -349 251 100 100" xml:space="preserve">
<g>
	<path fill="#12ACDE" d="M-288.4,269.1l3.4-6.1c0.2-0.3,0.1-0.7-0.3-0.9c-0.3-0.2-0.7-0.1-0.9,0.3l-3.4,6.2c-2.9-1.3-6.1-2-9.4-2
		c-3.4,0-6.6,0.7-9.4,2l-3.4-6.2c-0.2-0.3-0.6-0.4-0.9-0.3c-0.3,0.2-0.4,0.6-0.3,0.9l3.4,6.1c-6.6,3.4-11.1,9.9-11.1,17.3l43.4,0
		C-277.3,279-281.8,272.5-288.4,269.1z M-308.9,278.6c-1,0-1.8-0.8-1.8-1.8c0-1,0.8-1.8,1.8-1.8c1,0,1.8,0.8,1.8,1.8
		C-307.1,277.8-307.9,278.6-308.9,278.6z M-289.1,278.6c-1,0-1.8-0.8-1.8-1.8c0-1,0.8-1.8,1.8-1.8c1,0,1.8,0.8,1.8,1.8
		C-287.3,277.8-288.1,278.6-289.1,278.6z"/>
	<path fill="#12ACDE" d="M-266,292c0-2.7-2.2-4.8-4.8-4.8c-2.7,0-4.8,2.2-4.8,4.8l0,20.2c0,2.7,2.2,4.8,4.8,4.8
		c2.7,0,4.8-2.2,4.8-4.8L-266,292z"/>
	<path fill="#12ACDE" d="M-277.5,288.1L-277.5,288.1l-43,0l0,31.2c0,0.8,0.2,1.6,0.5,2.3c0.8,1.7,2.6,2.9,4.6,2.9h3.5l0,10.7
		c0,0.3,0,0.7,0.1,1c0.4,2.2,2.4,3.8,4.7,3.8c0.3,0,0.7,0,1-0.1c2.2-0.5,3.8-2.4,3.8-4.7l0-10.7h6.5v10.7c0,2.3,1.7,4.3,3.8,4.7
		c0.3,0.1,0.6,0.1,1,0.1c2.7,0,4.8-2.2,4.8-4.8l0-10.7l3.5,0c1,0,1.9-0.3,2.6-0.7c1.5-0.9,2.5-2.5,2.5-4.4L-277.5,288.1
		L-277.5,288.1z"/>
	<path fill="#12ACDE" d="M-327.2,287.2c-2.7,0-4.8,2.2-4.8,4.8l0,20.2c0,1.7,0.9,3.2,2.2,4c0.8,0.5,1.7,0.8,2.7,0.8
		c2.3,0,4.3-1.7,4.7-3.8c0.1-0.3,0.1-0.6,0.1-1V292C-322.4,289.4-324.5,287.2-327.2,287.2z"/>
</g>
</svg>
