<?xml version="1.0" encoding="utf-8"?>
<!-- Generator: Adobe Illustrator 18.1.1, SVG Export Plug-In . SVG Version: 6.00 Build 0)  -->
<!DOCTYPE svg PUBLIC "-//W3C//DTD SVG 1.1//EN" "http://www.w3.org/Graphics/SVG/1.1/DTD/svg11.dtd">
<svg version="1.1" id="Layer_1" xmlns="http://www.w3.org/2000/svg" xmlns:xlink="http://www.w3.org/1999/xlink" x="0px" y="0px"
	 viewBox="-349 251 100 100" enable-background="new -349 251 100 100" xml:space="preserve">
<path id="XMLID_1_" fill="#12ACDE" d="M-260.5,277.1c-2.8,1.3-5.9,2.1-9.1,2.5c3.3-2,5.8-5.1,6.9-8.7c-3.1,1.8-6.4,3.1-10,3.8
	c-2.9-3.1-7-5-11.5-5c-8.7,0-15.8,7.1-15.8,15.8c0,1.2,0.1,2.4,0.4,3.6c-13.1-0.7-24.8-6.9-32.6-16.5c-1.4,2.3-2.1,5-2.1,7.9
	c0,5.5,2.8,10.3,7,13.1c-2.6-0.1-5-0.8-7.2-2c0,0.1,0,0.1,0,0.2c0,7.7,5.4,14,12.7,15.5c-1.3,0.4-2.7,0.6-4.2,0.6c-1,0-2-0.1-3-0.3
	c2,6.3,7.8,10.8,14.8,11c-5.4,4.2-12.2,6.8-19.6,6.8c-1.3,0-2.5-0.1-3.8-0.2c7,4.5,15.3,7.1,24.2,7.1c29.1,0,44.9-24.1,44.9-44.9
	c0-0.7,0-1.4,0-2C-265.3,283.1-262.6,280.3-260.5,277.1z"/>
</svg>
