<?xml version="1.0" encoding="utf-8"?>
<!-- Generator: Adobe Illustrator 18.1.1, SVG Export Plug-In . SVG Version: 6.00 Build 0)  -->
<!DOCTYPE svg PUBLIC "-//W3C//DTD SVG 1.1//EN" "http://www.w3.org/Graphics/SVG/1.1/DTD/svg11.dtd">
<svg version="1.1" id="Layer_1" xmlns="http://www.w3.org/2000/svg" xmlns:xlink="http://www.w3.org/1999/xlink" x="0px" y="0px"
	 viewBox="-349 251 100 100" enable-background="new -349 251 100 100" xml:space="preserve">
<g id="White_1_">
	<path fill="#12ACDE" d="M-267,265H-331c-2.2,0-4,1.8-4,4V333c0,2.2,1.8,4,4,4h34.5v-27.9h-9.4v-10.9h9.4v-8c0-9.3,5.7-14.4,14-14.4
		c4,0,7.4,0.3,8.4,0.4v9.7l-5.8,0c-4.5,0-5.4,2.1-5.4,5.3v6.9h10.8l-1.4,10.9h-9.4V337h18.3c2.2,0,4-1.8,4-4V269
		C-263,266.8-264.8,265-267,265z"/>
</g>
</svg>
