<?xml version="1.0" encoding="utf-8"?>
<!-- Generator: Adobe Illustrator 18.1.1, SVG Export Plug-In . SVG Version: 6.00 Build 0)  -->
<!DOCTYPE svg PUBLIC "-//W3C//DTD SVG 1.1//EN" "http://www.w3.org/Graphics/SVG/1.1/DTD/svg11.dtd">
<svg version="1.1" id="Layer_1" xmlns="http://www.w3.org/2000/svg" xmlns:xlink="http://www.w3.org/1999/xlink" x="0px" y="0px"
	 viewBox="-349 251 100 100" enable-background="new -349 251 100 100" xml:space="preserve">
<g>
	<path fill="#12ACDE" d="M-281,296.3c0,9.9-8,18-18,18c-9.9,0-18-8-18-18c0-2.8,0.7-5.4,1.8-7.8H-335v42c0,3.9,3.1,7,7,7h58
		c3.9,0,7-3.1,7-7v-42h-19.8C-281.7,290.9-281,293.5-281,296.3z"/>
	<path fill="#12ACDE" d="M-270,264.5h-58c-3.9,0-7,3.1-7,7v14h21.7c3.3-4.3,8.5-7.2,14.3-7.2s11.1,2.8,14.3,7.2h21.7v-14
		C-263,267.6-266.1,264.5-270,264.5z M-329.2,282.2h-2.6v-10.1c0-1.8,1.1-3.3,2.6-3.9L-329.2,282.2L-329.2,282.2z M-325,282.2h-2.5
		v-14.3h2.5V282.2z M-320.7,282.2h-2.5v-14.3h2.5V282.2z M-316.4,272.1v5.8v4.3h-2.5v-14.3h2.5V272.1z M-266.6,278
		c0,2.3-1.9,4.3-4.3,4.3h-6.9c-2.3,0-4.3-1.9-4.3-4.3v-5.8c0-2.4,1.9-4.3,4.3-4.3h6.9c2.3,0,4.3,1.9,4.3,4.3V278z"/>
	<path fill="#12ACDE" d="M-299,312.1c8.7,0,15.8-7.1,15.8-15.8c0-8.7-7.1-15.8-15.8-15.8c-8.7,0-15.8,7.1-15.8,15.8
		C-314.8,305.1-307.7,312.1-299,312.1z M-299,283.7c7,0,12.6,5.6,12.6,12.6c0,7-5.6,12.6-12.6,12.6s-12.6-5.6-12.6-12.6
		C-311.6,289.4-306,283.7-299,283.7z"/>
</g>
</svg>
