<?xml version="1.0" encoding="utf-8"?>
<!-- Generator: Adobe Illustrator 18.1.1, SVG Export Plug-In . SVG Version: 6.00 Build 0)  -->
<!DOCTYPE svg PUBLIC "-//W3C//DTD SVG 1.1//EN" "http://www.w3.org/Graphics/SVG/1.1/DTD/svg11.dtd">
<svg version="1.1" id="Layer_1" xmlns="http://www.w3.org/2000/svg" xmlns:xlink="http://www.w3.org/1999/xlink" x="0px" y="0px"
	 viewBox="-349 251 100 100" enable-background="new -349 251 100 100" xml:space="preserve">
<g>
	<path fill="#12ACDE" d="M-267,287.8c-4.1-5.1-9.9-8.1-15.4-8.1c-7.2,0-10.3,3.4-15.3,3.4c-5.2,0-9.1-3.4-15.3-3.4
		c-6.1,0-12.7,3.7-16.8,10.1c-5.8,9-4.8,25.8,4.6,40.2c3.4,5.1,7.9,10.9,13.8,11c5.2,0,6.7-3.3,13.8-3.4c7.1,0,8.5,3.4,13.7,3.4
		c5.9-0.1,10.7-6.5,14-11.6c2.4-3.7,3.3-5.5,5.2-9.7C-278.3,314.5-280.5,295.2-267,287.8z"/>
	<path fill="#12ACDE" d="M-287.8,274c2.6-3.4,4.6-8.1,3.9-13c-4.3,0.3-9.3,3-12.2,6.6c-2.7,3.2-4.9,8-4,12.7
		C-295.5,280.4-290.6,277.6-287.8,274z"/>
</g>
</svg>
