<?xml version="1.0" encoding="utf-8"?>
<!-- Generator: Adobe Illustrator 18.1.1, SVG Export Plug-In . SVG Version: 6.00 Build 0)  -->
<svg version="1.1" id="Layer_1" xmlns="http://www.w3.org/2000/svg" xmlns:xlink="http://www.w3.org/1999/xlink" x="0px" y="0px"
	 viewBox="0 0 800 300" enable-background="new 0 0 800 300" xml:space="preserve">
<path fill="#10ACDD" d="M38.4,127.254c0,29.694,18.366,52.694,47.167,54.067v31.136C37.301,211.186,2.321,176,2.321,127.254
	c0-48.781,34.981-83.967,83.246-85.237v31.17C56.765,74.525,38.4,97.251,38.4,127.254z"/>
<path fill="#414042" d="M174.58,127.254c0,47.133-32.681,81.564-78.715,84.928v-31.307c26.089-3.57,42.636-25.609,42.636-53.621
	c0-28.286-16.546-50.119-42.636-53.621V42.291C141.899,45.655,174.58,80.087,174.58,127.254z"/>
<path fill="#10ACDD" d="M229.945,194.21v60.807h-31.392V90.146h31.392v15.077c9.145-11.618,22.246-18.044,36.831-18.044
	c30.651,0,52.897,22.741,52.897,62.538c0,39.796-22.246,62.785-52.897,62.785C252.686,212.502,239.585,206.568,229.945,194.21z
	 M287.044,149.717c0-20.517-12.112-34.607-30.156-34.607c-10.134,0-21.752,5.932-26.943,13.596v42.268
	c5.191,7.415,16.809,13.596,26.943,13.596C274.932,184.57,287.044,170.48,287.044,149.717z"/>
<path fill="#10ACDD" d="M334.985,149.717c0-34.607,25.46-62.538,61.796-62.538c35.595,0,59.82,26.697,59.82,65.752v6.921H367.86
	c1.978,15.077,14.09,27.684,34.358,27.684c10.136,0,24.224-4.449,31.888-11.864l13.842,20.268
	c-11.864,10.877-30.651,16.562-49.189,16.562C362.423,212.502,334.985,188.03,334.985,149.717z M396.781,112.144
	c-19.528,0-27.932,14.584-29.415,26.449h58.831C425.456,127.223,417.546,112.144,396.781,112.144z"/>
<path fill="#10ACDD" d="M559.909,209.535v-72.178c0-16.561-8.651-22.246-21.998-22.246c-12.36,0-22,6.921-27.191,14.09v80.335
	h-31.392V90.146h31.392v15.572c7.664-9.145,22.246-18.539,41.774-18.539c26.202,0,38.809,14.831,38.809,38.066v84.29H559.909z"/>
<path fill="#414042" d="M622.434,209.535V44.662h31.392v164.873H622.434z"/>
<path fill="#414042" d="M685.457,228.074c2.72,1.237,6.923,1.978,9.888,1.978c8.158,0,13.596-2.224,16.562-8.652l4.449-10.134
	L667.907,90.146h33.618l31.145,83.053l31.145-83.053h33.864l-56.11,138.917c-8.899,22.494-24.719,28.426-45.235,28.921
	c-3.708,0-11.618-0.743-15.572-1.73L685.457,228.074z"/>
</svg>
