<?xml version="1.0" encoding="utf-8"?>
<!-- Generator: Adobe Illustrator 18.1.1, SVG Export Plug-In . SVG Version: 6.00 Build 0)  -->
<!DOCTYPE svg PUBLIC "-//W3C//DTD SVG 1.1//EN" "http://www.w3.org/Graphics/SVG/1.1/DTD/svg11.dtd">
<svg version="1.1" id="Layer_1" xmlns="http://www.w3.org/2000/svg" xmlns:xlink="http://www.w3.org/1999/xlink" x="0px" y="0px"
	 viewBox="352 282 96 36" enable-background="new 352 282 96 36" xml:space="preserve">
<g>
	<path fill="#10ACDD" d="M356.8,299.8c0,3.6,2.2,6.4,5.7,6.6v3.8c-5.9-0.2-10.1-4.4-10.1-10.4c0-5.9,4.3-10.2,10.1-10.4v3.8
		C359,293.4,356.8,296.2,356.8,299.8z"/>
	<path fill="#FFFFFF" d="M373.3,299.8c0,5.7-4,9.9-9.6,10.3v-3.8c3.2-0.4,5.2-3.1,5.2-6.5c0-3.4-2-6.1-5.2-6.5v-3.8
		C369.4,289.9,373.3,294.1,373.3,299.8z"/>
	<path fill="#10ACDD" d="M380.1,308v7.4h-3.8v-20h3.8v1.8c1.1-1.4,2.7-2.2,4.5-2.2c3.7,0,6.4,2.8,6.4,7.6c0,4.8-2.7,7.6-6.4,7.6
		C382.8,310.2,381.2,309.5,380.1,308z M387,302.6c0-2.5-1.5-4.2-3.7-4.2c-1.2,0-2.6,0.7-3.3,1.7v5.1c0.6,0.9,2,1.7,3.3,1.7
		C385.5,306.8,387,305.1,387,302.6z"/>
	<path fill="#10ACDD" d="M392.8,302.6c0-4.2,3.1-7.6,7.5-7.6c4.3,0,7.3,3.2,7.3,8v0.8h-10.8c0.2,1.8,1.7,3.4,4.2,3.4
		c1.2,0,2.9-0.5,3.9-1.4l1.7,2.5c-1.4,1.3-3.7,2-6,2C396.2,310.2,392.8,307.2,392.8,302.6z M400.4,298c-2.4,0-3.4,1.8-3.6,3.2h7.2
		C403.8,299.8,402.9,298,400.4,298z"/>
	<path fill="#10ACDD" d="M420.2,309.9v-8.8c0-2-1.1-2.7-2.7-2.7c-1.5,0-2.7,0.8-3.3,1.7v9.8h-3.8v-14.5h3.8v1.9
		c0.9-1.1,2.7-2.3,5.1-2.3c3.2,0,4.7,1.8,4.7,4.6v10.3L420.2,309.9L420.2,309.9z"/>
	<path fill="#FFFFFF" d="M430.2,289.8c-0.4,1.2-0.5,2.4,0,3.6c0.4-0.7,0.9-1.4,1.4-2.1v-1.4H430.2z"/>
	<path fill="#FFFFFF" d="M431.6,292.2v1.6c-0.3,0.5-1.1,1.9-1.3,2.3c0,0.1-0.3,0.7-0.4,1.5c-0.2,1.1-0.1,2.9,0,4.7
		c0.1,1.7,0.2,3.4,0.1,5.1c0,0.4,0,0.9-0.1,1.3c0,0.3-0.2,0.6-0.4,0.8c-0.2,0.2-0.5,0.3-0.8,0.3c-0.6,0-1.1-0.5-1.1-1.1v-5.2
		c0-0.2,0-0.3,0-0.5c0.1-0.8,0.2-1.6,0.4-2.3c0.3-1.6,0.8-3.1,1.5-4.6c0,0,0,0,0,0c0.1-0.3,0.3-0.6,0.4-0.9c0.1-0.2,0.2-0.4,0.2-0.5
		C430.7,293.8,431.2,293,431.6,292.2z"/>
	<g>
		<path fill="#FFFFFF" d="M446.3,295.9c0.9,0,1.5,0.9,1.2,1.7c-1.7,4.1-5.8,14.3-5.8,14.3c-1,2.5-2.7,3.1-4.9,3.1c0,0,0,0,0,0
			c-0.6,0-1.1-0.6-1-1.2c0,0,0-1,1.3-1c0.5,0,1.1-0.1,1.5-0.4c0.2-0.2,0.4-0.4,0.5-0.7c0.2-0.3,0.3-0.7,0.5-1
			c0.1-0.2,0.1-0.3,0.2-0.5c0,0,0.1-0.2,0.1-0.2l-5-12.4c-0.3-0.8,0.3-1.7,1.2-1.7c0.5,0,1,0.3,1.2,0.8l3.9,10.4
			c0,0,2.9-7.8,3.9-10.4C445.3,296.3,445.8,295.9,446.3,295.9L446.3,295.9L446.3,295.9z"/>
	</g>
	<path fill="#FFFFFF" d="M438.7,287.1c-0.7,0.6-1.3,0.8-1.9,1.1c0.6-0.1,1.9-0.4,1.9-0.4s0,0.1-0.1,0.1c0,0,0,0.1-0.1,0.1
		c0,0.1-0.1,0.1-0.1,0.2c-0.1,0.1-0.2,0.2-0.2,0.4c-0.2,0.3-0.3,0.6-0.5,0.9c-0.2,0.3-0.3,0.6-0.5,0.9c-0.2,0.3-0.5,0.4-0.9,0.6
		c-0.2,0.1-0.3,0.1-0.5,0.2c-0.2,0.1-0.5,0.1-0.7,0.1c-0.3,0-0.5,0.1-0.8,0.1c0.8,0.1,1.6,0.1,2.4-0.1c-0.5,0.9-1.1,1.8-1.9,2.4
		s-1.8,1.1-2.8,1c-0.2,0-0.4-0.1-0.5-0.1c-0.1,0-0.2,0-0.4,0.1c-0.3,0.1-0.4,0.5-0.6,0.7c-0.2,0.3-0.4,0.6-0.7,0.9
		c-0.1,0.1-0.1,0.2-0.2,0.2c0,0,0,0,0,0c0,0-0.1-0.1-0.1-0.1c0,0,0-0.1,0-0.1c0-0.1,0.1-0.1,0.1-0.2c0-0.1,0.1-0.2,0.1-0.3
		c0.1-0.1,0.1-0.3,0.2-0.4c0.1-0.2,0.2-0.4,0.2-0.5c0.4-0.8,0.8-1.6,1.3-2.4c0.1-0.1,0.1-0.2,0.2-0.3c1-1.7,2.8-3.8,4.2-5.1
		c-1.5,1.2-3.1,2.8-4.4,4.5c-0.5,0.7-1,1.4-1.4,2.1c-0.5-1.1-0.4-2.4,0-3.6c0.1-0.3,0.2-0.6,0.4-0.8c0.7-1.3,2.1-2.5,3.5-3.2
		c-0.1,0.4-0.2,1.1-0.3,1.5c0-0.4,0.3-0.8,0.6-1.4c0.2-0.3,0.5-0.5,0.6-0.6c0,0,0.1,0,0.1,0c0.4-0.2,0.6-0.2,1-0.4c0,0,0,0,0,0
		c0.4-0.1,0.9-0.2,1.3-0.2c0.3,0,0.6,0,0.9,0c0.3,0,0.6,0.1,0.8,0.3c0.2,0.1,0.2,0.3,0.3,0.6C439.6,285.8,439.4,286.4,438.7,287.1z"
		/>
</g>
</svg>
