<?xml version="1.0" encoding="utf-8"?>
<!-- Generator: Adobe Illustrator 18.1.1, SVG Export Plug-In . SVG Version: 6.00 Build 0)  -->
<svg version="1.1" id="Layer_1" xmlns="http://www.w3.org/2000/svg" xmlns:xlink="http://www.w3.org/1999/xlink" x="0px" y="0px"
	 viewBox="0 0 800 300" enable-background="new 0 0 800 300" xml:space="preserve">
<path fill="#10ACDD" d="M40.877,150.348c0,29.694,18.366,52.694,47.167,54.067v31.136c-48.266-1.27-83.246-36.457-83.246-85.203
	c0-48.781,34.981-83.967,83.246-85.237v31.17C59.242,97.62,40.877,120.345,40.877,150.348z"/>
<path fill="#FFFFFF" d="M177.057,150.348c0,47.133-32.681,81.564-78.715,84.928v-31.307c26.089-3.57,42.636-25.609,42.636-53.621
	c0-28.286-16.546-50.119-42.636-53.621V65.385C144.376,68.75,177.057,103.181,177.057,150.348z"/>
<path fill="#10ACDD" d="M232.422,217.304v60.807h-31.392V113.24h31.392v15.077c9.145-11.618,22.246-18.044,36.831-18.044
	c30.651,0,52.897,22.741,52.897,62.538c0,39.796-22.246,62.785-52.897,62.785C255.163,235.596,242.062,229.663,232.422,217.304z
	 M289.521,172.812c0-20.517-12.112-34.607-30.156-34.607c-10.134,0-21.752,5.932-26.943,13.596v42.268
	c5.191,7.415,16.809,13.596,26.943,13.596C277.409,207.665,289.521,193.574,289.521,172.812z"/>
<path fill="#10ACDD" d="M337.462,172.812c0-34.607,25.46-62.538,61.796-62.538c35.595,0,59.82,26.697,59.82,65.752v6.921h-88.741
	c1.978,15.077,14.09,27.684,34.358,27.684c10.136,0,24.224-4.449,31.888-11.864l13.842,20.268
	c-11.864,10.877-30.651,16.562-49.189,16.562C364.9,235.596,337.462,211.124,337.462,172.812z M399.258,135.238
	c-19.528,0-27.932,14.584-29.415,26.449h58.831C427.932,150.317,420.023,135.238,399.258,135.238z"/>
<path fill="#10ACDD" d="M562.386,232.63v-72.178c0-16.561-8.651-22.246-21.998-22.246c-12.36,0-22,6.921-27.191,14.09v80.335
	h-31.392V113.24h31.392v15.572c7.664-9.145,22.246-18.539,41.774-18.539c26.202,0,38.809,14.831,38.809,38.066v84.29H562.386z"/>
<path fill="#FFFFFF" d="M644.931,67.754c-3.4,9.49-3.79,20.09-0.03,29.38c3.12-5.85,7.01-11.82,11.4-17.67v-11.71H644.931z"/>
<path fill="#FFFFFF" d="M656.301,87.504v13.3c-2.51,3.98-9.21,15.78-10.53,19.26c-0.37,0.97-2.26,6.12-3.1,12.26
	c-1.27,9.27-0.51,23.68,0.3,38.94c0.73,13.87,1.49,28.21,1.04,41.68c-0.12,3.62-0.34,7.29-0.66,10.98c-0.21,2.47-1.36,4.64-3.07,6.2
	c-1.702,1.572-3.986,2.513-6.46,2.51c-4.902-0.005-8.91-4.268-8.91-9.17v-42.933c0-1.35,0.08-2.7,0.256-4.039
	c0.844-6.395,1.96-12.763,3.354-19.009c2.86-12.87,6.89-25.56,11.98-37.71c0.05-0.12,0.1-0.24,0.16-0.36
	c1.08-2.58,2.23-5.16,3.42-7.7c0.64-1.47,1.28-2.94,1.91-4.42C648.931,100.484,652.621,93.964,656.301,87.504z"/>
<g>
	<path fill="#FFFFFF" d="M777.369,118.244c7.369,0,12.379,7.411,9.633,14.21c-13.78,34.119-47.602,117.86-47.602,117.86
		c-8.21,20.74-22.19,25.31-40.65,25.76c-0.023,0-0.047,0-0.071,0c-5.154-0.014-9.046-4.696-8.198-9.78c0,0-0.142-7.812,11.006-8.3
		c4.214-0.185,8.873-0.877,12.373-3.481c1.94-1.444,2.963-3.314,3.918-5.469c1.264-2.855,2.567-5.698,3.82-8.555
		c0.614-1.4,1.228-2.8,1.842-4.2c0.113-0.258,0.919-1.57,0.809-1.845c0,0-40.724-101.81-40.724-101.81
		c-2.757-6.892,2.319-14.39,9.742-14.39c4.374,0,8.289,2.713,9.825,6.809l32.057,85.482c0,0,24.026-64.066,32.042-85.442
		c1.546-4.123,5.485-6.848,9.888-6.848H777.369z"/>
</g>
<path fill="#FFFFFF" d="M714.601,45.344c-5.39,4.89-10.66,6.83-15.81,8.98c4.84-0.43,15.93-3.46,15.93-3.46s-0.38,0.55-0.46,0.67
	c-0.18,0.26-0.36,0.52-0.54,0.79c-0.34,0.51-0.68,1.02-1.02,1.53c-0.68,1.03-1.38,2.05-1.98,3.12c-1.46,2.61-2.71,5.18-4.05,7.78
	c-1.26,2.46-2.5,4.94-4.15,7.17c-1.84,2.48-4.29,3.63-7.12,4.75c-1.41,0.55-2.84,1.01-4.3,1.36c-1.88,0.44-3.78,0.79-5.69,1.04
	c-2.07,0.27-4.16,0.43-6.25,0.47c6.59,1.05,13.38,0.88,19.91-0.51c-4.3,7.25-8.86,14.52-15.23,20.04s-14.87,9.14-23.2,7.86
	c-1.42-0.23-2.9-0.58-4.34-0.61c-1.02-0.04-2.02,0.1-2.95,0.55c-2.41,1.17-3.35,3.85-4.59,6.03c-1.55,2.71-3.47,5.21-5.71,7.39
	c-0.43,0.42-1.05,1.29-1.72,1.24c-0.15-0.01-0.29-0.06-0.41-0.14c-0.34-0.21-0.57-0.62-0.54-1.01c0.03-0.3,0.14-0.63,0.28-0.97
	c0.24-0.55,0.58-1.12,0.78-1.58c0.39-0.91,0.78-1.81,1.17-2.72c0.49-1.13,0.98-2.26,1.47-3.4c0.64-1.47,1.28-2.94,1.91-4.42
	c2.94-6.81,6.63-13.33,10.31-19.79c0.48-0.85,0.97-1.7,1.45-2.55c8.18-14.39,22.73-30.92,34.83-42.2
	c-12.6,9.51-25.86,22.78-36.28,36.71c-4.39,5.85-8.28,11.82-11.4,17.67c-3.76-9.29-3.37-19.89,0.03-29.38
	c0.84-2.39,1.88-4.71,3.1-6.92c6.05-11.01,17.6-20.32,28.58-26.41c-0.76,3.37-2.04,9.13-2.19,12.36c0.28-3.08,2.36-6.98,5.09-11.16
	c1.42-2.18,3.73-4.46,5.3-5.06c0.03-0.01,0.95-0.36,0.98-0.37c3.56-1.34,4.76-1.86,8.42-2.91c0.04-0.01,0.08-0.02,0.11-0.03
	c3.55-1.01,7.18-1.75,10.86-2.05c2.51-0.19,5.04-0.18,7.55,0.1c2.28,0.25,4.68,0.79,6.34,2.38c1.25,1.18,1.9,2.85,2.26,4.53
	C721.921,34.944,720.531,39.964,714.601,45.344z"/>
</svg>
